<svg xmlns="http://www.w3.org/2000/svg" xmlns:xlink="http://www.w3.org/1999/xlink" width="500" zoomAndPan="magnify" viewBox="0 0 375 374.999991" height="500" preserveAspectRatio="xMidYMid meet" version="1.2"><defs><clipPath id="2855166eb3"><rect x="0" width="57" y="0" height="144"/></clipPath><clipPath id="2af43dffe0"><rect x="0" width="27" y="0" height="144"/></clipPath><clipPath id="05e1353de6"><path d="M 31 107 L 90 107 L 90 249 L 31 249 Z M 31 107 "/></clipPath><clipPath id="5ba820f437"><path d="M 59.304688 107.714844 L 89.523438 113.957031 L 61.746094 248.4375 L 31.53125 242.199219 Z M 59.304688 107.714844 "/></clipPath><clipPath id="30b21cc5a6"><path d="M 0.441406 0.519531 L 58.761719 0.519531 L 58.761719 141.640625 L 0.441406 141.640625 Z M 0.441406 0.519531 "/></clipPath><clipPath id="f7ff8eb16c"><path d="M 28.304688 0.714844 L 58.523438 6.957031 L 30.746094 141.4375 L 0.53125 135.199219 Z M 28.304688 0.714844 "/></clipPath><clipPath id="f2568b54e6"><rect x="0" width="59" y="0" height="142"/></clipPath><clipPath id="ed7c7e6468"><path d="M 46 151 L 69 151 L 69 237 L 46 237 Z M 46 151 "/></clipPath><clipPath id="7b1c61a8d2"><path d="M 46.097656 235.558594 L 46.925781 231.902344 L 50.582031 232.726562 L 49.757812 236.386719 M 47.75 228.242188 L 48.574219 224.585938 L 52.230469 225.410156 L 51.40625 229.070312 M 49.398438 220.925781 L 50.222656 217.269531 L 53.882812 218.09375 L 53.054688 221.753906 M 51.046875 213.609375 L 51.871094 209.953125 L 55.53125 210.777344 L 54.707031 214.4375 M 52.695312 206.292969 L 53.519531 202.636719 L 57.179688 203.460938 L 56.355469 207.121094 M 54.347656 198.976562 L 55.171875 195.320312 L 58.828125 196.144531 L 58.003906 199.804688 M 55.996094 191.660156 L 56.820312 188.003906 L 60.476562 188.828125 L 59.652344 192.488281 M 57.644531 184.34375 L 58.46875 180.6875 L 62.128906 181.511719 L 61.300781 185.171875 M 59.292969 177.027344 L 60.117188 173.371094 L 63.777344 174.195312 L 62.953125 177.855469 M 60.941406 169.710938 L 61.769531 166.054688 L 65.425781 166.878906 L 64.601562 170.539062 M 62.59375 162.394531 L 63.417969 158.738281 L 67.074219 159.5625 L 66.25 163.222656 M 64.242188 155.078125 L 65.066406 151.421875 L 68.722656 152.246094 L 67.898438 155.90625 "/></clipPath><linearGradient x1="59.325001" gradientTransform="matrix(0.164929,-0.731641,0.731641,0.164929,46.099475,235.560207)" y1="29.670105" x2="59.325001" gradientUnits="userSpaceOnUse" y2="-24.670113" id="48fabcc906"><stop style="stop-color:#582515;stop-opacity:1;" offset="0"/><stop style="stop-color:#582515;stop-opacity:1;" offset="0.25"/><stop style="stop-color:#582515;stop-opacity:1;" offset="0.375"/><stop style="stop-color:#582515;stop-opacity:1;" offset="0.4375"/><stop style="stop-color:#582515;stop-opacity:1;" offset="0.453125"/><stop style="stop-color:#622b13;stop-opacity:1;" offset="0.457031"/><stop style="stop-color:#6c3212;stop-opacity:1;" offset="0.460938"/><stop style="stop-color:#773910;stop-opacity:1;" offset="0.464844"/><stop style="stop-color:#83400e;stop-opacity:1;" offset="0.46875"/><stop style="stop-color:#8e470c;stop-opacity:1;" offset="0.472656"/><stop style="stop-color:#994e0b;stop-opacity:1;" offset="0.476562"/><stop style="stop-color:#a55509;stop-opacity:1;" offset="0.480469"/><stop style="stop-color:#b05c07;stop-opacity:1;" offset="0.484375"/><stop style="stop-color:#bb6405;stop-opacity:1;" offset="0.488281"/><stop style="stop-color:#c66b04;stop-opacity:1;" offset="0.492188"/><stop style="stop-color:#d27202;stop-opacity:1;" offset="0.496094"/><stop style="stop-color:#dd7900;stop-opacity:1;" offset="0.5"/><stop style="stop-color:#df8414;stop-opacity:1;" offset="0.503906"/><stop style="stop-color:#e29028;stop-opacity:1;" offset="0.507812"/><stop style="stop-color:#e49b3c;stop-opacity:1;" offset="0.511719"/><stop style="stop-color:#e7a750;stop-opacity:1;" offset="0.515625"/><stop style="stop-color:#e9b264;stop-opacity:1;" offset="0.519531"/><stop style="stop-color:#ecbd78;stop-opacity:1;" offset="0.523438"/><stop style="stop-color:#eec98c;stop-opacity:1;" offset="0.527344"/><stop style="stop-color:#f1d4a0;stop-opacity:1;" offset="0.53125"/><stop style="stop-color:#f3dfb4;stop-opacity:1;" offset="0.535156"/><stop style="stop-color:#f6ebc8;stop-opacity:1;" offset="0.539062"/><stop style="stop-color:#f8f5d9;stop-opacity:1;" offset="0.542969"/><stop style="stop-color:#faffeb;stop-opacity:1;" offset="0.546875"/><stop style="stop-color:#faffeb;stop-opacity:1;" offset="0.5625"/><stop style="stop-color:#faffeb;stop-opacity:1;" offset="0.625"/><stop style="stop-color:#faffeb;stop-opacity:1;" offset="0.75"/><stop style="stop-color:#faffeb;stop-opacity:1;" offset="1"/></linearGradient><clipPath id="ff091626b7"><rect x="0" width="273" y="0" height="68"/></clipPath></defs><g id="9846d60af3"><g transform="matrix(1,0,0,1,9,98)"><g clip-path="url(#2855166eb3)"><g style="fill:#471a14;fill-opacity:1;"><g transform="translate(2.682604, 112.419952)"><path style="stroke:none" d="M 47.03125 -72.0625 C 47.519531 -71.570312 47.691406 -71.046875 47.546875 -70.484375 L 46.921875 -58.234375 C 46.847656 -57.117188 46.21875 -56.457031 45.03125 -56.25 L 18.21875 -52.890625 L 17.171875 -40.84375 L 39.171875 -42.109375 C 39.796875 -42.109375 40.316406 -41.894531 40.734375 -41.46875 C 41.160156 -41.050781 41.375 -40.566406 41.375 -40.015625 L 41.375 -28.0625 C 41.375 -26.738281 40.707031 -26.039062 39.375 -25.96875 C 35.46875 -25.625 31.59375 -25.207031 27.75 -24.71875 C 25.164062 -24.363281 21.570312 -23.628906 16.96875 -22.515625 L 16.96875 -2.515625 C 16.96875 -1.117188 16.304688 -0.382812 14.984375 -0.3125 L 1.15625 0 C 0.519531 0 -0.00390625 -0.207031 -0.421875 -0.625 C -0.835938 -1.039062 -1.046875 -1.566406 -1.046875 -2.203125 C -0.765625 -15.609375 -0.414062 -25.59375 0 -32.15625 C 0.5625 -42.90625 1.539062 -55.125 2.9375 -68.8125 C 3.070312 -70.070312 3.734375 -70.703125 4.921875 -70.703125 L 45.34375 -72.6875 C 45.976562 -72.6875 46.539062 -72.476562 47.03125 -72.0625 Z M 15.5 -69.234375 L 15.921875 -68.921875 L 16.03125 -68.921875 C 16.09375 -68.921875 16.226562 -68.8125 16.4375 -68.59375 C 16.582031 -68.875 16.65625 -69.050781 16.65625 -69.125 C 16.65625 -69.332031 16.582031 -69.4375 16.4375 -69.4375 L 16.234375 -69.328125 L 16.125 -69.328125 Z M 17.703125 -68.59375 C 17.835938 -68.738281 17.90625 -68.953125 17.90625 -69.234375 L 16.96875 -69.4375 L 16.96875 -68.59375 Z M 8.171875 -67.875 C 8.304688 -67.9375 8.375 -68.039062 8.375 -68.1875 C 8.09375 -68.1875 7.953125 -68.289062 7.953125 -68.5 L 8.28125 -68.703125 C 8.0625 -68.703125 7.953125 -68.804688 7.953125 -69.015625 L 7.859375 -68.8125 L 7.640625 -68.703125 L 7.546875 -68.28125 L 7.75 -67.875 C 7.882812 -67.726562 7.953125 -67.617188 7.953125 -67.546875 C 7.953125 -67.617188 8.023438 -67.726562 8.171875 -67.875 Z M 10.15625 -68.28125 L 10.265625 -68.5 L 9.734375 -68.59375 L 9.734375 -68.5 Z M 15.5 -67.65625 L 15.5 -67.875 L 14.875 -67.875 L 14.875 -67.65625 Z M 32.046875 -66.296875 L 32.046875 -65.875 L 32.46875 -65.875 L 32.46875 -66.296875 Z M 9.328125 -61.578125 L 9.328125 -61.890625 L 9.109375 -61.890625 L 9.109375 -61.578125 Z M 12.15625 -59.171875 C 12.632812 -59.171875 12.875 -59.347656 12.875 -59.703125 C 12.8125 -59.765625 12.640625 -59.796875 12.359375 -59.796875 L 11.734375 -59.796875 Z M 8.90625 -56.765625 L 9.109375 -56.96875 L 8.796875 -57.078125 L 8.6875 -56.875 Z M 9 -53.09375 L 9 -53.3125 L 8.59375 -53.3125 L 8.59375 -53.09375 Z M 12.984375 -52.046875 C 12.984375 -52.328125 12.707031 -52.710938 12.15625 -53.203125 L 11.9375 -52.046875 Z M 15.1875 -44.09375 L 15.1875 -44.40625 L 15.078125 -44.515625 L 15.078125 -44.609375 L 14.25 -44.609375 L 14.25 -43.890625 Z M 12.78125 -44.09375 L 11.3125 -44.203125 L 11.109375 -43.984375 L 11.109375 -43.5625 C 11.316406 -43.351562 11.59375 -43.25 11.9375 -43.25 L 12.15625 -43.46875 L 12.5625 -43.78125 Z M 10.890625 -38.4375 C 10.609375 -38.71875 10.46875 -38.859375 10.46875 -38.859375 L 11.515625 -38.859375 C 11.453125 -38.992188 11.332031 -39.148438 11.15625 -39.328125 C 10.976562 -39.503906 10.820312 -39.625 10.6875 -39.6875 L 10.46875 -38.96875 L 9.84375 -39.28125 L 8.90625 -38.640625 C 9.039062 -38.429688 9.351562 -38.328125 9.84375 -38.328125 C 9.976562 -38.398438 10.328125 -38.4375 10.890625 -38.4375 Z M 34.453125 -30.15625 C 34.660156 -29.945312 34.765625 -29.707031 34.765625 -29.4375 L 34.765625 -28.390625 L 34.984375 -29.75 L 35.09375 -30.578125 C 35.019531 -31.273438 34.910156 -31.800781 34.765625 -32.15625 L 34.765625 -38.015625 C 34.765625 -37.734375 34.660156 -37.523438 34.453125 -37.390625 Z M 8.90625 -32.578125 L 8.90625 -32.359375 L 9.21875 -32.359375 L 9.21875 -32.578125 Z M 15.8125 -29.328125 C 16.164062 -29.328125 16.550781 -29.394531 16.96875 -29.53125 C 16.6875 -29.8125 16.546875 -29.953125 16.546875 -29.953125 C 16.335938 -30.234375 15.988281 -30.375 15.5 -30.375 L 15.078125 -30.375 C 14.941406 -30.300781 14.734375 -30.265625 14.453125 -30.265625 C 14.585938 -29.640625 15.039062 -29.328125 15.8125 -29.328125 Z M 34.671875 -28.28125 L 34.671875 -27.65625 L 34.875 -27.65625 L 34.875 -28.28125 Z M 1.046875 -19.265625 C 1.179688 -19.265625 1.25 -19.335938 1.25 -19.484375 C 0.976562 -19.546875 0.84375 -19.6875 0.84375 -19.90625 L 1.046875 -20.109375 C 0.910156 -20.109375 0.84375 -20.175781 0.84375 -20.3125 C 0.5625 -20.175781 0.421875 -19.96875 0.421875 -19.6875 C 0.421875 -19.550781 0.488281 -19.410156 0.625 -19.265625 C 0.769531 -19.128906 0.84375 -19.023438 0.84375 -18.953125 C 0.84375 -19.023438 0.910156 -19.128906 1.046875 -19.265625 Z M 2.515625 -20 L 2.515625 -19.796875 L 2.9375 -19.6875 L 3.140625 -19.796875 Z M 4.921875 -10.46875 C 5.484375 -10.46875 5.765625 -10.679688 5.765625 -11.109375 L 5.234375 -11.203125 L 4.609375 -11.203125 Z M 1.671875 -8.375 L 1.46875 -8.28125 L 1.671875 -8.171875 L 1.890625 -8.375 Z M 1.46875 -4.609375 L 1.46875 -4.40625 L 1.890625 -4.40625 L 1.890625 -4.609375 Z M 5.859375 -3.34375 C 5.859375 -3.695312 5.582031 -4.082031 5.03125 -4.5 L 4.8125 -3.34375 Z M 5.859375 -3.34375 "/></g></g></g></g><g transform="matrix(1,0,0,1,66,133)"><g clip-path="url(#2af43dffe0)"><g style="fill:#af4c0f;fill-opacity:1;"><g transform="translate(2.704392, 112.750303)"><path style="stroke:none" d="M 18.859375 -73.421875 C 19.484375 -73.421875 19.988281 -73.191406 20.375 -72.734375 C 20.757812 -72.285156 20.953125 -71.742188 20.953125 -71.109375 C 19.898438 -58.753906 19.128906 -47.269531 18.640625 -36.65625 C 18.503906 -31.351562 18.4375 -27.441406 18.4375 -24.921875 L 18.125 -24.921875 C 17.769531 -24.921875 17.523438 -24.890625 17.390625 -24.828125 L 17.28125 -24.09375 L 17.484375 -24.09375 C 17.273438 -23.738281 16.894531 -23.457031 16.34375 -23.25 C 16.96875 -22.96875 17.664062 -22.828125 18.4375 -22.828125 L 18.4375 -19.796875 L 17.90625 -19.796875 L 17.484375 -19.578125 L 17.171875 -19.484375 C 17.171875 -19.484375 17.101562 -19.410156 16.96875 -19.265625 L 16.96875 -18.859375 C 16.894531 -18.710938 16.859375 -18.535156 16.859375 -18.328125 C 16.859375 -17.910156 16.894531 -17.5625 16.96875 -17.28125 L 17.390625 -17.59375 L 17.59375 -17.703125 L 18.125 -18.015625 C 18.1875 -18.085938 18.21875 -18.257812 18.21875 -18.53125 L 18.328125 -18.640625 L 18.4375 -18.640625 C 18.363281 -17.941406 18.328125 -16.441406 18.328125 -14.140625 C 18.191406 -14.273438 18.019531 -14.273438 17.8125 -14.140625 C 17.8125 -13.859375 17.84375 -13.71875 17.90625 -13.71875 L 18.015625 -13.609375 L 18.015625 -13.515625 L 18.21875 -13.515625 L 18.21875 -13.609375 L 18.328125 -13.609375 L 18.328125 -9.734375 C 18.328125 -10.015625 18.1875 -10.257812 17.90625 -10.46875 L 17.078125 -10.46875 C 17.078125 -10.257812 17.109375 -10.15625 17.171875 -10.15625 L 17.171875 -9.84375 L 17.28125 -9.734375 L 17.28125 -9.640625 C 17.5625 -9.566406 17.910156 -9.597656 18.328125 -9.734375 L 18.328125 -2.40625 C 18.328125 -1.007812 17.628906 -0.3125 16.234375 -0.3125 L 1.15625 0 C 0.519531 0 -0.00390625 -0.207031 -0.421875 -0.625 C -0.835938 -1.039062 -1.046875 -1.566406 -1.046875 -2.203125 C -0.765625 -17.285156 -0.414062 -28.597656 0 -36.140625 C 0.414062 -45.210938 0.800781 -51.945312 1.15625 -56.34375 C 1.21875 -56.28125 1.320312 -56.25 1.46875 -56.25 L 1.578125 -56.765625 C 1.503906 -56.835938 1.394531 -56.875 1.25 -56.875 L 2.203125 -71.015625 C 2.265625 -72.335938 3 -73 4.40625 -73 Z M 8.171875 -70.28125 C 8.304688 -70.488281 8.476562 -70.59375 8.6875 -70.59375 C 9.25 -70.59375 9.632812 -70.347656 9.84375 -69.859375 C 10.050781 -69.367188 10.257812 -69.085938 10.46875 -69.015625 C 10.613281 -69.160156 10.6875 -69.40625 10.6875 -69.75 C 10.539062 -69.957031 10.679688 -70.132812 11.109375 -70.28125 L 12.359375 -70.28125 C 12.359375 -70.5625 12.21875 -70.734375 11.9375 -70.796875 C 11.519531 -70.734375 11.273438 -70.734375 11.203125 -70.796875 C 11.140625 -70.867188 11 -70.90625 10.78125 -70.90625 L 10.265625 -70.703125 C 10.054688 -70.484375 9.914062 -70.375 9.84375 -70.375 C 9.632812 -70.375 9.425781 -70.484375 9.21875 -70.703125 L 8.6875 -70.90625 L 7.234375 -70.90625 C 7.296875 -70.695312 7.257812 -70.519531 7.125 -70.375 L 6.5 -70.375 C 6.28125 -70.726562 6.171875 -70.835938 6.171875 -70.703125 C 6.171875 -70.765625 6.101562 -70.726562 5.96875 -70.59375 L 5.765625 -70.171875 L 5.34375 -70.171875 C 5.34375 -70.171875 5.238281 -70.273438 5.03125 -70.484375 C 4.957031 -70.554688 4.851562 -70.695312 4.71875 -70.90625 C 4.4375 -70.90625 4.222656 -70.921875 4.078125 -70.953125 C 3.941406 -70.992188 3.835938 -71.015625 3.765625 -71.015625 C 3.765625 -70.941406 3.695312 -70.835938 3.5625 -70.703125 C 3.414062 -70.628906 3.34375 -70.519531 3.34375 -70.375 C 3.34375 -69.957031 3.414062 -69.679688 3.5625 -69.546875 C 3.769531 -69.335938 3.835938 -68.882812 3.765625 -68.1875 L 3.453125 -67.234375 L 3.140625 -66.1875 C 3.140625 -66.050781 3.207031 -65.910156 3.34375 -65.765625 C 3.488281 -65.628906 3.5625 -65.492188 3.5625 -65.359375 C 3.414062 -65.359375 3.34375 -65.320312 3.34375 -65.25 C 3.132812 -65.039062 3.03125 -64.898438 3.03125 -64.828125 C 3.3125 -64.753906 3.382812 -64.507812 3.25 -64.09375 C 3.039062 -63.882812 2.9375 -63.675781 2.9375 -63.46875 C 2.9375 -62.769531 2.96875 -62.242188 3.03125 -61.890625 L 3.25 -60.75 C 3.25 -60.601562 3.144531 -60.460938 2.9375 -60.328125 L 3.140625 -60.328125 L 3.25 -60.21875 C 3.664062 -60.425781 4.050781 -60.53125 4.40625 -60.53125 L 4.40625 -61.484375 C 4.1875 -61.546875 4.007812 -61.695312 3.875 -61.9375 C 3.738281 -62.1875 3.703125 -62.382812 3.765625 -62.53125 L 4.71875 -62.84375 L 5.453125 -63.15625 C 5.234375 -63.289062 5.125 -63.394531 5.125 -63.46875 C 5.125 -63.820312 5.40625 -64 5.96875 -64 C 5.832031 -64.132812 5.765625 -64.238281 5.765625 -64.3125 L 5.65625 -64.515625 C 6.070312 -64.929688 6.28125 -65.140625 6.28125 -65.140625 C 6.28125 -65.285156 6.210938 -65.425781 6.078125 -65.5625 L 5.859375 -65.984375 C 6.140625 -66.265625 6.421875 -66.40625 6.703125 -66.40625 L 7.75 -66.609375 C 7.050781 -66.609375 6.703125 -66.75 6.703125 -67.03125 C 6.703125 -67.164062 6.84375 -67.320312 7.125 -67.5 C 7.40625 -67.675781 7.71875 -67.765625 8.0625 -67.765625 C 7.78125 -67.972656 7.710938 -68.21875 7.859375 -68.5 C 7.785156 -68.5 7.675781 -68.550781 7.53125 -68.65625 C 7.394531 -68.757812 7.328125 -68.878906 7.328125 -69.015625 C 7.328125 -69.222656 7.570312 -69.429688 8.0625 -69.640625 C 8.207031 -69.785156 8.207031 -69.894531 8.0625 -69.96875 C 8.0625 -70.101562 8.097656 -70.207031 8.171875 -70.28125 Z M 8.375 -67.453125 C 8.375 -67.378906 8.445312 -67.34375 8.59375 -67.34375 C 9.144531 -67.34375 9.492188 -67.410156 9.640625 -67.546875 L 9.734375 -67.765625 L 9.734375 -68.078125 C 9.734375 -68.285156 9.769531 -68.425781 9.84375 -68.5 C 9.5625 -68.5 9.421875 -68.425781 9.421875 -68.28125 C 9.285156 -68.007812 9.21875 -67.835938 9.21875 -67.765625 C 9.007812 -67.484375 8.726562 -67.378906 8.375 -67.453125 Z M 4.5 -56.765625 C 4.21875 -57.117188 4.113281 -57.429688 4.1875 -57.703125 C 4.1875 -58.054688 4.363281 -58.300781 4.71875 -58.4375 C 4.925781 -58.4375 5.171875 -58.578125 5.453125 -58.859375 C 5.378906 -59.273438 5.097656 -59.484375 4.609375 -59.484375 C 4.191406 -59.421875 3.769531 -59.421875 3.34375 -59.484375 C 3.34375 -59.273438 3.273438 -59.082031 3.140625 -58.90625 C 3.003906 -58.738281 2.898438 -58.617188 2.828125 -58.546875 C 3.035156 -58.410156 3.171875 -58.269531 3.234375 -58.125 C 3.304688 -57.988281 3.273438 -57.816406 3.140625 -57.609375 L 3.03125 -56.96875 L 3.140625 -56.140625 C 3.003906 -55.859375 2.9375 -55.648438 2.9375 -55.515625 C 2.726562 -55.296875 2.726562 -55.117188 2.9375 -54.984375 C 2.9375 -54.910156 2.953125 -54.859375 2.984375 -54.828125 C 3.015625 -54.796875 3.066406 -54.742188 3.140625 -54.671875 C 3.210938 -54.671875 3.316406 -54.601562 3.453125 -54.46875 L 2.9375 -47.34375 C 2.445312 -47.0625 2.269531 -46.921875 2.40625 -46.921875 C 2.550781 -46.921875 2.726562 -46.816406 2.9375 -46.609375 C 2.863281 -46.398438 2.6875 -46.257812 2.40625 -46.1875 L 2.296875 -45.25 C 2.722656 -45.039062 2.863281 -44.898438 2.71875 -44.828125 L 2.40625 -44.515625 L 2.9375 -44.09375 L 2.625 -39.59375 C 2.34375 -39.382812 2.203125 -39.175781 2.203125 -38.96875 C 2.203125 -38.820312 2.34375 -38.609375 2.625 -38.328125 C 2.625 -38.328125 2.640625 -38.3125 2.671875 -38.28125 C 2.703125 -38.25 2.71875 -38.234375 2.71875 -38.234375 C 2.71875 -38.085938 2.644531 -37.960938 2.5 -37.859375 C 2.363281 -37.753906 2.226562 -37.664062 2.09375 -37.59375 C 2.164062 -37.382812 2.179688 -37.191406 2.140625 -37.015625 C 2.109375 -36.847656 1.988281 -36.726562 1.78125 -36.65625 C 2.195312 -36.375 2.40625 -36.09375 2.40625 -35.8125 C 2.40625 -35.601562 2.367188 -35.410156 2.296875 -35.234375 C 2.234375 -35.066406 2.164062 -34.910156 2.09375 -34.765625 C 1.882812 -34.210938 1.675781 -33.9375 1.46875 -33.9375 C 1.957031 -33.65625 2.203125 -33.445312 2.203125 -33.3125 C 2.203125 -33.3125 2.179688 -33.289062 2.140625 -33.25 C 2.109375 -33.21875 2.09375 -33.203125 2.09375 -33.203125 L 2.09375 -33.3125 C 1.882812 -33.09375 1.707031 -32.863281 1.5625 -32.625 C 1.425781 -32.382812 1.359375 -32.191406 1.359375 -32.046875 C 1.359375 -31.910156 1.394531 -31.804688 1.46875 -31.734375 C 1.601562 -31.660156 1.671875 -31.59375 1.671875 -31.53125 L 1.359375 -31.3125 C 1.566406 -31.238281 1.671875 -31.03125 1.671875 -30.6875 L 1.671875 -29.84375 C 1.671875 -29.84375 1.65625 -29.789062 1.625 -29.6875 C 1.59375 -29.582031 1.539062 -29.390625 1.46875 -29.109375 C 1.46875 -29.046875 1.445312 -28.976562 1.40625 -28.90625 C 1.375 -28.832031 1.359375 -28.765625 1.359375 -28.703125 L 1.671875 -28.0625 C 1.816406 -27.925781 1.890625 -27.753906 1.890625 -27.546875 C 1.890625 -27.335938 1.816406 -27.160156 1.671875 -27.015625 C 1.460938 -26.742188 1.359375 -26.535156 1.359375 -26.390625 C 1.359375 -26.253906 1.394531 -26.1875 1.46875 -26.1875 L 1.46875 -25.96875 L 2.09375 -25.96875 C 1.957031 -25.96875 1.890625 -26.070312 1.890625 -26.28125 C 1.816406 -26.351562 1.78125 -26.460938 1.78125 -26.609375 C 2.125 -26.816406 2.40625 -26.921875 2.625 -26.921875 C 2.476562 -27.128906 2.332031 -27.492188 2.1875 -28.015625 C 2.050781 -28.535156 1.984375 -29.007812 1.984375 -29.4375 C 1.984375 -29.570312 2.054688 -29.707031 2.203125 -29.84375 C 2.335938 -29.988281 2.40625 -30.476562 2.40625 -31.3125 L 2.625 -32.15625 C 2.832031 -32.363281 2.832031 -32.503906 2.625 -32.578125 C 2.550781 -32.640625 2.582031 -32.847656 2.71875 -33.203125 L 3.140625 -33.203125 C 2.929688 -34.109375 2.828125 -34.664062 2.828125 -34.875 C 2.828125 -35.15625 2.894531 -35.46875 3.03125 -35.8125 C 3.175781 -36.164062 3.316406 -36.445312 3.453125 -36.65625 L 2.9375 -36.65625 L 2.9375 -36.546875 L 2.40625 -36.546875 C 2.40625 -36.617188 2.335938 -36.65625 2.203125 -36.65625 L 3.03125 -37.5 C 3.3125 -37.769531 3.453125 -37.976562 3.453125 -38.125 L 3.25 -39.0625 C 3.039062 -39.550781 3.039062 -40.003906 3.25 -40.421875 L 4.078125 -40.421875 C 3.523438 -40.421875 3.25 -40.597656 3.25 -40.953125 C 3.25 -41.160156 3.390625 -41.546875 3.671875 -42.109375 C 3.941406 -42.597656 4.078125 -43.015625 4.078125 -43.359375 L 3.984375 -44.40625 C 3.910156 -44.476562 3.875 -44.617188 3.875 -44.828125 C 3.738281 -45.109375 3.671875 -45.421875 3.671875 -45.765625 L 3.5625 -46.296875 C 3.5625 -46.429688 3.628906 -46.601562 3.765625 -46.8125 C 3.972656 -47.507812 4.046875 -47.828125 3.984375 -47.765625 C 3.984375 -47.898438 4.050781 -48.25 4.1875 -48.8125 L 4.296875 -49.21875 C 4.296875 -49.289062 4.222656 -49.535156 4.078125 -49.953125 C 3.867188 -50.585938 3.867188 -50.972656 4.078125 -51.109375 C 4.148438 -51.242188 4.289062 -51.382812 4.5 -51.53125 C 4.570312 -51.8125 4.609375 -52.300781 4.609375 -53 C 4.609375 -53.695312 4.78125 -54.113281 5.125 -54.25 C 4.570312 -54.601562 4.503906 -54.914062 4.921875 -55.1875 L 4.609375 -55.71875 C 4.742188 -55.925781 4.707031 -56.273438 4.5 -56.765625 Z M 14.765625 -56.25 C 14.765625 -56.25 14.660156 -56.140625 14.453125 -55.921875 L 15.078125 -55.921875 Z M 16.65625 -55.296875 L 17.390625 -55.71875 L 16.75 -55.921875 C 16.476562 -55.648438 16.34375 -55.515625 16.34375 -55.515625 Z M 18.015625 -46.078125 C 17.941406 -46.078125 17.90625 -46.113281 17.90625 -46.1875 L 17.703125 -46.1875 L 17.484375 -46.078125 C 17.484375 -46.078125 17.46875 -46.0625 17.4375 -46.03125 C 17.40625 -46 17.390625 -45.984375 17.390625 -45.984375 C 17.390625 -45.984375 17.367188 -45.960938 17.328125 -45.921875 C 17.296875 -45.890625 17.242188 -45.875 17.171875 -45.875 L 17.59375 -45.765625 C 17.664062 -45.703125 17.753906 -45.6875 17.859375 -45.71875 C 17.960938 -45.75 18.015625 -45.800781 18.015625 -45.875 Z M 16.234375 -42.625 C 15.953125 -42.90625 15.601562 -43.046875 15.1875 -43.046875 C 15.1875 -42.765625 15.289062 -42.519531 15.5 -42.3125 Z M 15.296875 -39.59375 L 15.296875 -39.90625 L 14.875 -39.90625 L 14.875 -39.59375 Z M 12.25 -38.96875 L 12.359375 -39.59375 C 11.941406 -39.59375 11.660156 -39.382812 11.515625 -38.96875 Z M 15.8125 -38.234375 L 15.5 -38.546875 L 14.765625 -38.546875 L 14.65625 -38.125 C 14.65625 -37.769531 14.898438 -37.59375 15.390625 -37.59375 L 15.5 -37.703125 C 15.570312 -37.773438 15.625 -37.828125 15.65625 -37.859375 C 15.6875 -37.890625 15.703125 -37.941406 15.703125 -38.015625 Z M 13.71875 -37.28125 L 13.921875 -37.390625 L 14.03125 -37.5 C 14.3125 -37.707031 14.453125 -37.878906 14.453125 -38.015625 C 14.523438 -38.222656 14.347656 -38.328125 13.921875 -38.328125 L 13.828125 -38.125 L 13.828125 -37.8125 Z M 12.78125 -35.609375 L 12.359375 -35.8125 L 12.15625 -34.984375 L 12.671875 -34.5625 L 13.203125 -34.875 C 13.472656 -35.019531 13.609375 -35.125 13.609375 -35.1875 C 13.609375 -35.257812 13.554688 -35.328125 13.453125 -35.390625 C 13.347656 -35.460938 13.265625 -35.5 13.203125 -35.5 Z M 15.703125 -33.71875 L 15.703125 -34.03125 L 15.078125 -34.03125 L 15.078125 -33.71875 Z M 14.65625 -32.890625 C 14.59375 -32.890625 14.5625 -32.957031 14.5625 -33.09375 L 13.828125 -33.09375 L 13.828125 -32.578125 L 14.65625 -32.578125 Z M 15.8125 -30.375 C 15.53125 -30.65625 15.253906 -30.796875 14.984375 -30.796875 C 14.703125 -30.722656 14.5625 -30.507812 14.5625 -30.15625 L 14.984375 -30.15625 C 15.046875 -30.09375 15.179688 -30.0625 15.390625 -30.0625 Z M 17.8125 -29.21875 C 17.664062 -29.632812 17.382812 -29.773438 16.96875 -29.640625 C 16.757812 -29.429688 16.722656 -29.328125 16.859375 -29.328125 L 16.859375 -29.015625 Z M 14.65625 -27.96875 C 14.519531 -27.894531 14.3125 -27.835938 14.03125 -27.796875 C 13.75 -27.765625 13.4375 -27.679688 13.09375 -27.546875 L 13.09375 -27.125 C 13.09375 -27.125 13.109375 -27.101562 13.140625 -27.0625 C 13.179688 -27.03125 13.203125 -27.015625 13.203125 -27.015625 L 13.40625 -27.015625 L 13.515625 -26.921875 L 14.453125 -26.921875 L 14.453125 -27.4375 C 14.867188 -27.4375 15.148438 -27.472656 15.296875 -27.546875 C 15.296875 -27.679688 15.257812 -27.785156 15.1875 -27.859375 L 15.078125 -28.0625 L 15.078125 -28.171875 L 15.1875 -28.703125 L 13.828125 -28.796875 C 13.828125 -28.304688 13.859375 -28.03125 13.921875 -27.96875 Z M 13.40625 -26.703125 C 13.40625 -26.640625 13.265625 -26.609375 12.984375 -26.609375 L 13.09375 -26.703125 C 12.945312 -26.847656 12.703125 -26.921875 12.359375 -26.921875 L 12.15625 -26.390625 L 12.359375 -26.390625 C 12.359375 -26.390625 12.375 -26.367188 12.40625 -26.328125 C 12.445312 -26.296875 12.46875 -26.28125 12.46875 -26.28125 C 12.53125 -26.28125 12.632812 -26.210938 12.78125 -26.078125 L 12.984375 -26.390625 L 13.203125 -26.28125 C 13.203125 -26.144531 13.269531 -26.078125 13.40625 -26.078125 L 14.140625 -26.1875 C 14.140625 -26.53125 13.894531 -26.703125 13.40625 -26.703125 Z M 12.984375 -25.34375 L 12.984375 -25.234375 L 13.09375 -25.140625 L 13.921875 -25.140625 C 13.710938 -25.421875 13.332031 -25.5625 12.78125 -25.5625 C 12.914062 -25.488281 12.945312 -25.414062 12.875 -25.34375 Z M 1.984375 -25.140625 C 1.640625 -24.648438 1.46875 -24.472656 1.46875 -24.609375 C 1.257812 -24.398438 1.15625 -24.226562 1.15625 -24.09375 L 1.046875 -20.53125 C 1.046875 -20.59375 1.113281 -20.90625 1.25 -21.46875 C 1.25 -21.882812 1.265625 -22.160156 1.296875 -22.296875 C 1.335938 -22.441406 1.359375 -22.550781 1.359375 -22.625 C 1.359375 -22.695312 1.429688 -22.941406 1.578125 -23.359375 C 1.785156 -23.566406 1.890625 -23.738281 1.890625 -23.875 Z M 14.875 -24.609375 L 14.984375 -24.515625 L 15.078125 -24.296875 L 15.296875 -24.1875 C 15.296875 -24.125 15.328125 -24.09375 15.390625 -24.09375 C 15.460938 -24.09375 15.5 -24.125 15.5 -24.1875 L 15.703125 -24.40625 C 15.703125 -24.539062 15.671875 -24.644531 15.609375 -24.71875 C 15.609375 -24.71875 15.570312 -24.734375 15.5 -24.765625 C 15.425781 -24.804688 15.390625 -24.859375 15.390625 -24.921875 L 15.1875 -24.921875 L 15.078125 -25.140625 L 14.34375 -25.140625 L 13.921875 -24.828125 L 14.34375 -24.515625 L 14.5625 -24.515625 L 14.65625 -24.609375 Z M 12.78125 -24.40625 L 12.78125 -24.09375 L 13.40625 -24.296875 L 13.296875 -24.71875 Z M 18.4375 -24.09375 L 18.4375 -22.828125 C 18.289062 -22.972656 18.21875 -23.046875 18.21875 -23.046875 L 18.015625 -23.140625 L 18.015625 -23.25 C 18.148438 -23.25 18.21875 -23.351562 18.21875 -23.5625 L 18.21875 -24.09375 Z M 13.609375 -23.359375 C 13.472656 -23.359375 13.265625 -23.21875 12.984375 -22.9375 L 13.296875 -22.625 C 13.578125 -22.625 13.820312 -22.726562 14.03125 -22.9375 C 14.101562 -23.21875 13.960938 -23.359375 13.609375 -23.359375 Z M 11.203125 -21.6875 C 11.273438 -21.40625 11.453125 -21.265625 11.734375 -21.265625 C 11.867188 -21.265625 11.9375 -21.296875 11.9375 -21.359375 L 12.15625 -21.359375 L 12.359375 -21.46875 L 12.46875 -22.09375 L 12.15625 -22.3125 C 12.007812 -22.3125 11.898438 -22.34375 11.828125 -22.40625 C 11.617188 -22.40625 11.515625 -22.515625 11.515625 -22.734375 L 10.890625 -22.734375 L 10.6875 -22.625 L 10.6875 -22.515625 L 10.46875 -22.40625 L 10.375 -22.3125 C 10.582031 -22.101562 10.753906 -22 10.890625 -22 Z M 14.875 -22.09375 L 12.984375 -22.3125 L 12.984375 -21.78125 Z M 10.265625 -20 C 10.472656 -19.789062 10.753906 -19.6875 11.109375 -19.6875 L 11.421875 -20.421875 L 10.46875 -20.421875 Z M 14.65625 -19.484375 C 14.9375 -19.691406 15.078125 -19.898438 15.078125 -20.109375 C 14.941406 -20.242188 14.695312 -20.3125 14.34375 -20.3125 L 14.25 -20.3125 C 13.894531 -20.101562 13.71875 -19.929688 13.71875 -19.796875 C 13.71875 -19.585938 13.820312 -19.484375 14.03125 -19.484375 Z M 16.859375 -19.796875 C 16.785156 -19.867188 16.578125 -19.90625 16.234375 -19.90625 C 15.878906 -19.550781 15.773438 -19.269531 15.921875 -19.0625 C 16.335938 -18.988281 16.648438 -19.054688 16.859375 -19.265625 Z M 0.734375 -18.640625 C 1.015625 -18.640625 1.15625 -18.710938 1.15625 -18.859375 C 1.15625 -19.273438 1.117188 -19.484375 1.046875 -19.484375 C 0.835938 -19.273438 0.734375 -18.992188 0.734375 -18.640625 Z M 11.109375 -17.484375 C 11.242188 -17.484375 11.347656 -17.519531 11.421875 -17.59375 L 11.625 -17.703125 L 11.828125 -17.90625 L 10.78125 -18.125 L 10.890625 -17.8125 C 10.890625 -17.59375 10.960938 -17.484375 11.109375 -17.484375 Z M 10.46875 -17.90625 L 9.21875 -17.703125 L 10.46875 -17.390625 Z M 13.296875 -17.171875 L 13.828125 -17.171875 L 13.921875 -17.59375 L 13.40625 -17.59375 Z M 12.046875 -15.921875 C 12.046875 -15.921875 12.023438 -15.898438 11.984375 -15.859375 C 11.953125 -15.828125 11.9375 -15.8125 11.9375 -15.8125 C 12.082031 -15.601562 12.429688 -15.5 12.984375 -15.5 C 13.128906 -15.5 13.304688 -15.640625 13.515625 -15.921875 L 14.34375 -15.921875 L 14.453125 -16.03125 L 14.453125 -16.125 L 14.5625 -16.34375 L 13.609375 -16.546875 C 13.546875 -16.472656 13.515625 -16.367188 13.515625 -16.234375 L 13.40625 -16.234375 L 13.296875 -16.34375 L 12.875 -16.34375 C 12.601562 -16.34375 12.429688 -16.269531 12.359375 -16.125 C 12.285156 -16.125 12.234375 -16.085938 12.203125 -16.015625 C 12.171875 -15.953125 12.15625 -15.921875 12.15625 -15.921875 Z M 16.859375 -15.8125 L 17.078125 -15.703125 L 17.078125 -15.609375 L 17.28125 -15.609375 L 17.484375 -15.5 C 18.046875 -15.5 18.328125 -15.707031 18.328125 -16.125 L 17.59375 -16.234375 Z M 9.84375 -16.125 L 9.421875 -15.8125 C 9.628906 -15.601562 9.875 -15.5 10.15625 -15.5 L 10.375 -15.609375 L 10.578125 -15.703125 L 10.890625 -15.8125 Z M 14.875 -15.8125 L 15.5 -15.8125 L 15.5 -16.125 L 14.875 -16.125 Z M 11.828125 -15.296875 C 11.691406 -15.148438 11.625 -15.046875 11.625 -14.984375 L 12.78125 -14.875 L 12.78125 -15.296875 L 11.9375 -15.5 C 11.9375 -15.363281 11.898438 -15.296875 11.828125 -15.296875 Z M 16.4375 -15.390625 L 16.4375 -15.5 L 15.703125 -15.5 L 15.703125 -14.875 L 16.546875 -14.984375 L 16.546875 -15.296875 Z M 14.65625 -14.03125 L 14.453125 -14.765625 C 13.890625 -14.554688 13.503906 -14.347656 13.296875 -14.140625 C 13.367188 -14.066406 13.578125 -14.03125 13.921875 -14.03125 Z M 9.21875 -14.03125 L 10.15625 -14.03125 L 10.15625 -14.34375 L 9.21875 -14.34375 Z M 14.03125 -13.40625 L 14.03125 -13.09375 L 14.65625 -13.09375 L 14.65625 -13.40625 Z M 16.4375 -12.46875 C 16.863281 -12.675781 16.863281 -12.882812 16.4375 -13.09375 L 16.34375 -12.984375 L 16.03125 -12.984375 C 16.03125 -12.773438 16.097656 -12.671875 16.234375 -12.671875 Z M 9.84375 -12.15625 C 10.050781 -12.007812 10.117188 -11.898438 10.046875 -11.828125 L 10.6875 -11.828125 C 10.894531 -11.972656 11 -12.082031 11 -12.15625 L 11.109375 -12.15625 C 11.109375 -12.21875 11.140625 -12.265625 11.203125 -12.296875 C 11.273438 -12.335938 11.3125 -12.359375 11.3125 -12.359375 C 11.175781 -12.359375 11.109375 -12.394531 11.109375 -12.46875 L 10.578125 -12.46875 C 10.085938 -12.601562 9.804688 -12.707031 9.734375 -12.78125 C 9.734375 -12.632812 9.703125 -12.53125 9.640625 -12.46875 C 9.640625 -12.46875 9.640625 -12.429688 9.640625 -12.359375 C 9.640625 -12.285156 9.640625 -12.25 9.640625 -12.25 L 9.734375 -12.15625 Z M 15.5 -11.421875 C 15.78125 -11.273438 16.0625 -11.203125 16.34375 -11.203125 C 16.613281 -11.203125 16.785156 -11.238281 16.859375 -11.3125 L 16.96875 -11.3125 L 16.96875 -12.15625 C 16.757812 -12.15625 16.582031 -12.222656 16.4375 -12.359375 C 16.375 -12.285156 16.289062 -12.25 16.1875 -12.25 C 16.082031 -12.25 15.992188 -12.21875 15.921875 -12.15625 L 15.8125 -12.359375 L 15.5 -12.25 C 15.363281 -12.113281 15.363281 -11.835938 15.5 -11.421875 Z M 0.625 -11.421875 L 0.203125 -11.109375 L 0.53125 -10.78125 Z M 14.984375 -10.890625 L 15.296875 -10.6875 L 15.703125 -11.203125 L 15.296875 -11.3125 Z M 12.78125 -10.046875 C 13.125 -10.046875 13.46875 -10.113281 13.8125 -10.25 C 14.164062 -10.394531 14.378906 -10.609375 14.453125 -10.890625 L 13.921875 -10.890625 C 13.367188 -10.890625 12.988281 -10.75 12.78125 -10.46875 Z M 13.515625 -9.953125 C 13.304688 -9.671875 13.304688 -9.460938 13.515625 -9.328125 L 13.40625 -9 L 13.515625 -8.90625 L 13.515625 -8.6875 L 14.03125 -8.59375 L 14.34375 -9.734375 C 14.0625 -9.878906 13.785156 -9.953125 13.515625 -9.953125 Z M 15.078125 -8.6875 C 15.148438 -8.625 15.328125 -8.59375 15.609375 -8.59375 L 15.921875 -8.484375 L 16.125 -8.484375 C 16.332031 -8.484375 16.488281 -8.515625 16.59375 -8.578125 C 16.695312 -8.648438 16.75 -8.789062 16.75 -9 L 15.8125 -9 C 15.601562 -9 15.359375 -9.070312 15.078125 -9.21875 L 14.875 -8.6875 Z M 11.421875 -8.796875 L 10.46875 -8.796875 L 10.46875 -8.375 L 11.421875 -8.375 Z M 16.546875 -7.859375 C 16.265625 -7.859375 16 -7.71875 15.75 -7.4375 C 15.507812 -7.15625 15.359375 -6.976562 15.296875 -6.90625 L 16.125 -6.703125 C 16.757812 -6.910156 17.179688 -7.296875 17.390625 -7.859375 Z M 15.078125 -7.546875 L 14.25 -7.546875 C 14.25 -7.472656 14.210938 -7.414062 14.140625 -7.375 C 14.066406 -7.34375 14.03125 -7.328125 14.03125 -7.328125 L 13.828125 -6.90625 C 13.617188 -6.84375 13.476562 -6.707031 13.40625 -6.5 L 13.40625 -6.078125 C 13.820312 -6.078125 14.03125 -6.039062 14.03125 -5.96875 L 13.921875 -5.546875 C 13.921875 -5.265625 13.957031 -5.09375 14.03125 -5.03125 L 14.65625 -5.234375 L 14.984375 -5.546875 L 15.078125 -6.703125 L 14.5625 -6.8125 C 14.84375 -6.8125 15.015625 -6.84375 15.078125 -6.90625 Z M 15.8125 -5.65625 C 16.019531 -5.65625 16.332031 -5.796875 16.75 -6.078125 C 16.613281 -6.210938 16.234375 -6.28125 15.609375 -6.28125 Z M 17.390625 -5.859375 L 16.65625 -5.859375 L 16.34375 -5.234375 L 17.171875 -5.234375 C 17.316406 -5.378906 17.390625 -5.519531 17.390625 -5.65625 Z M 17.390625 -5.859375 "/></g></g></g></g><g clip-rule="nonzero" clip-path="url(#05e1353de6)"><g clip-rule="nonzero" clip-path="url(#5ba820f437)"><g transform="matrix(1,0,0,1,31,107)"><g clip-path="url(#f2568b54e6)"><g clip-rule="nonzero" clip-path="url(#30b21cc5a6)"><g clip-rule="nonzero" clip-path="url(#f7ff8eb16c)"><path style=" stroke:none;fill-rule:nonzero;fill:#ffffff;fill-opacity:1;" d="M 28.304688 0.714844 L 58.523438 6.957031 L 30.753906 141.398438 L 0.539062 135.15625 Z M 28.304688 0.714844 "/></g></g></g></g></g></g><g clip-rule="nonzero" clip-path="url(#ed7c7e6468)"><g clip-rule="nonzero" clip-path="url(#7b1c61a8d2)"><path style=" stroke:none;fill-rule:nonzero;fill:url(#48fabcc906);" d="M 27.871094 232.277344 L 67.628906 241.238281 L 86.949219 155.53125 L 47.195312 146.566406 Z M 27.871094 232.277344 "/></g></g><g transform="matrix(1,0,0,1,99,153)"><g clip-path="url(#ff091626b7)"><g style="fill:#471a14;fill-opacity:1;"><g transform="translate(1.389531, 51.336466)"><path style="stroke:none" d="M 27.75 -11.921875 C 27.269531 -11.867188 26.785156 -11.84375 26.296875 -11.84375 C 25.503906 -13.476562 24.851562 -14.617188 24.34375 -15.265625 C 23.832031 -15.910156 23.238281 -16.328125 22.5625 -16.515625 C 21.894531 -16.703125 20.8125 -16.796875 19.3125 -16.796875 L 12.9375 -16.796875 L 12.9375 -6.59375 C 12.9375 -5.28125 13.0625 -4.3125 13.3125 -3.6875 C 13.570312 -3.070312 13.921875 -2.664062 14.359375 -2.46875 C 14.796875 -2.269531 15.457031 -2.101562 16.34375 -1.96875 C 16.96875 -1.863281 17.476562 -1.769531 17.875 -1.6875 C 18.28125 -1.613281 18.71875 -1.492188 19.1875 -1.328125 L 19.1875 0 L 1.9375 0 L 1.890625 -1.328125 C 2.296875 -1.515625 2.6875 -1.660156 3.0625 -1.765625 C 3.4375 -1.867188 3.765625 -1.945312 4.046875 -2 C 4.328125 -2.0625 4.515625 -2.101562 4.609375 -2.125 C 5.367188 -2.28125 5.925781 -2.453125 6.28125 -2.640625 C 6.644531 -2.835938 6.925781 -3.238281 7.125 -3.84375 C 7.332031 -4.445312 7.4375 -5.390625 7.4375 -6.671875 L 7.4375 -26.109375 C 7.4375 -27.492188 7.320312 -28.515625 7.09375 -29.171875 C 6.863281 -29.828125 6.53125 -30.273438 6.09375 -30.515625 C 5.664062 -30.765625 4.960938 -31.023438 3.984375 -31.296875 C 3.085938 -31.535156 2.335938 -31.769531 1.734375 -32 L 1.734375 -33.296875 L 27.34375 -33.328125 L 31.640625 -33.375 L 31.640625 -25.453125 L 30.484375 -25.390625 C 30.222656 -25.679688 29.988281 -25.992188 29.78125 -26.328125 C 29.582031 -26.660156 29.332031 -27.117188 29.03125 -27.703125 C 28.632812 -28.429688 28.289062 -29.007812 28 -29.4375 C 27.707031 -29.875 27.34375 -30.265625 26.90625 -30.609375 C 26.476562 -30.953125 25.96875 -31.164062 25.375 -31.25 C 24.570312 -31.375 23.765625 -31.445312 22.953125 -31.46875 C 22.140625 -31.488281 21.128906 -31.5 19.921875 -31.5 L 15.015625 -31.5 C 14.367188 -31.5 13.910156 -31.460938 13.640625 -31.390625 C 13.378906 -31.328125 13.195312 -31.171875 13.09375 -30.921875 C 12.988281 -30.679688 12.9375 -30.265625 12.9375 -29.671875 L 12.9375 -18.75 C 13.675781 -18.75 14.675781 -18.726562 15.9375 -18.6875 C 17.0625 -18.65625 17.878906 -18.640625 18.390625 -18.640625 C 20.398438 -18.640625 22.050781 -18.8125 23.34375 -19.15625 C 23.90625 -19.3125 24.34375 -19.601562 24.65625 -20.03125 C 24.976562 -20.46875 25.300781 -21.070312 25.625 -21.84375 C 25.675781 -21.957031 25.757812 -22.144531 25.875 -22.40625 C 26 -22.675781 26.117188 -22.90625 26.234375 -23.09375 L 27.75 -23.046875 Z M 27.75 -11.921875 "/></g></g><g style="fill:#471a14;fill-opacity:1;"><g transform="translate(33.657755, 51.336466)"><path style="stroke:none" d="M 7.5 -35.1875 C 8.3125 -35.1875 9.003906 -34.894531 9.578125 -34.3125 C 10.160156 -33.738281 10.453125 -33.039062 10.453125 -32.21875 C 10.453125 -31.382812 10.160156 -30.679688 9.578125 -30.109375 C 9.003906 -29.535156 8.3125 -29.25 7.5 -29.25 C 6.65625 -29.25 5.945312 -29.535156 5.375 -30.109375 C 4.8125 -30.679688 4.53125 -31.382812 4.53125 -32.21875 C 4.53125 -33.039062 4.8125 -33.738281 5.375 -34.3125 C 5.945312 -34.894531 6.65625 -35.1875 7.5 -35.1875 Z M 5.453125 -18.59375 C 5.222656 -18.988281 4.804688 -19.34375 4.203125 -19.65625 C 3.597656 -19.96875 2.972656 -20.226562 2.328125 -20.4375 C 1.691406 -20.65625 1.375 -20.753906 1.375 -20.734375 L 1.4375 -21.640625 L 8.625 -23.375 L 10.203125 -23.484375 L 10.203125 -5.625 C 10.203125 -5.03125 10.265625 -4.46875 10.390625 -3.9375 C 10.523438 -3.40625 10.921875 -2.867188 11.578125 -2.328125 C 12.234375 -1.785156 13.265625 -1.4375 14.671875 -1.28125 C 14.671875 -0.71875 14.664062 -0.289062 14.65625 0 L 1.296875 0 C 1.265625 -0.300781 1.25 -0.726562 1.25 -1.28125 L 1.96875 -1.484375 C 2.71875 -1.691406 3.320312 -1.894531 3.78125 -2.09375 C 4.238281 -2.300781 4.628906 -2.601562 4.953125 -3 C 5.285156 -3.40625 5.453125 -3.945312 5.453125 -4.625 Z M 5.453125 -18.59375 "/></g></g><g style="fill:#471a14;fill-opacity:1;"><g transform="translate(48.845809, 51.336466)"><path style="stroke:none" d="M 10.03125 -5.984375 C 10.03125 -4.554688 10.320312 -3.453125 10.90625 -2.671875 C 11.5 -1.898438 12.472656 -1.4375 13.828125 -1.28125 C 13.828125 -1.019531 13.816406 -0.757812 13.796875 -0.5 C 13.785156 -0.25 13.78125 -0.0820312 13.78125 0 L 1.203125 0 L 1.171875 -1.28125 C 1.328125 -1.382812 1.523438 -1.476562 1.765625 -1.5625 C 2.015625 -1.644531 2.269531 -1.722656 2.53125 -1.796875 C 3.28125 -1.992188 3.867188 -2.21875 4.296875 -2.46875 C 4.722656 -2.71875 4.976562 -3.085938 5.0625 -3.578125 C 5.195312 -4.316406 5.265625 -5.066406 5.265625 -5.828125 L 5.25 -29.890625 C 5.039062 -30.234375 4.625 -30.570312 4 -30.90625 C 3.375 -31.238281 2.765625 -31.519531 2.171875 -31.75 C 1.578125 -31.976562 1.191406 -32.117188 1.015625 -32.171875 L 1.078125 -33.0625 L 8.1875 -35.015625 L 10.03125 -35.1875 Z M 10.03125 -5.984375 "/></g></g><g style="fill:#471a14;fill-opacity:1;"><g transform="translate(64.033864, 51.336466)"><path style="stroke:none" d="M 10 -6.015625 C 10 -4.710938 10.203125 -3.738281 10.609375 -3.09375 C 11.023438 -2.457031 11.492188 -2.046875 12.015625 -1.859375 C 12.546875 -1.671875 13.375 -1.476562 14.5 -1.28125 C 14.5 -1.019531 14.488281 -0.757812 14.46875 -0.5 C 14.457031 -0.25 14.453125 -0.0820312 14.453125 0 L 1.25 0 L 1.25 -1.359375 C 1.28125 -1.367188 1.519531 -1.4375 1.96875 -1.5625 C 2.820312 -1.757812 3.519531 -2 4.0625 -2.28125 C 4.613281 -2.5625 4.945312 -2.992188 5.0625 -3.578125 C 5.144531 -3.867188 5.195312 -4.160156 5.21875 -4.453125 C 5.238281 -4.753906 5.25 -5.160156 5.25 -5.671875 L 5.25 -18.5625 C 5.039062 -18.976562 4.632812 -19.34375 4.03125 -19.65625 C 3.425781 -19.96875 2.796875 -20.226562 2.140625 -20.4375 C 1.492188 -20.65625 1.171875 -20.753906 1.171875 -20.734375 L 1.25 -21.609375 L 8.28125 -23.34375 L 9.796875 -23.453125 L 10.078125 -19.28125 C 11.078125 -20.59375 12.257812 -21.65625 13.625 -22.46875 C 14.988281 -23.28125 16.515625 -23.6875 18.203125 -23.6875 C 19.878906 -23.6875 21.257812 -23.34375 22.34375 -22.65625 C 23.4375 -21.976562 24.273438 -20.945312 24.859375 -19.5625 C 25.671875 -20.46875 26.441406 -21.203125 27.171875 -21.765625 C 27.910156 -22.335938 28.734375 -22.789062 29.640625 -23.125 C 30.546875 -23.457031 31.566406 -23.625 32.703125 -23.625 C 34.941406 -23.625 36.738281 -23.097656 38.09375 -22.046875 C 39.445312 -21.003906 40.21875 -19.414062 40.40625 -17.28125 C 40.539062 -15.6875 40.609375 -14.078125 40.609375 -12.453125 L 40.609375 -5.75 C 40.609375 -4.894531 40.671875 -4.171875 40.796875 -3.578125 C 40.878906 -3.085938 41.09375 -2.695312 41.4375 -2.40625 C 41.789062 -2.113281 42.132812 -1.910156 42.46875 -1.796875 C 42.8125 -1.691406 43.410156 -1.519531 44.265625 -1.28125 C 44.265625 -1.019531 44.253906 -0.765625 44.234375 -0.515625 C 44.222656 -0.273438 44.21875 -0.101562 44.21875 0 L 31.921875 0 C 31.921875 -0.101562 31.910156 -0.273438 31.890625 -0.515625 C 31.867188 -0.765625 31.859375 -1.019531 31.859375 -1.28125 C 31.953125 -1.289062 32.050781 -1.3125 32.15625 -1.34375 C 32.269531 -1.382812 32.382812 -1.421875 32.5 -1.453125 C 33.382812 -1.691406 34.09375 -1.953125 34.625 -2.234375 C 35.15625 -2.515625 35.488281 -2.945312 35.625 -3.53125 C 35.757812 -4.207031 35.828125 -4.945312 35.828125 -5.75 L 35.828125 -15.90625 C 35.828125 -17.507812 35.414062 -18.75 34.59375 -19.625 C 33.78125 -20.5 32.613281 -20.9375 31.09375 -20.9375 C 30.039062 -20.9375 28.992188 -20.625 27.953125 -20 C 26.910156 -19.382812 25.988281 -18.632812 25.1875 -17.75 C 25.289062 -16.570312 25.34375 -14.679688 25.34375 -12.078125 L 25.34375 -5.875 C 25.34375 -4.90625 25.394531 -4.15625 25.5 -3.625 C 25.601562 -3.007812 25.921875 -2.554688 26.453125 -2.265625 C 26.992188 -1.984375 27.707031 -1.722656 28.59375 -1.484375 C 29.070312 -1.328125 29.300781 -1.257812 29.28125 -1.28125 C 29.28125 -1.019531 29.269531 -0.757812 29.25 -0.5 C 29.238281 -0.25 29.234375 -0.0820312 29.234375 0 L 16.4375 0 C 16.4375 -0.101562 16.425781 -0.273438 16.40625 -0.515625 C 16.394531 -0.765625 16.390625 -1.019531 16.390625 -1.28125 C 16.460938 -1.289062 16.875 -1.367188 17.625 -1.515625 C 18.382812 -1.660156 19.0625 -2.113281 19.65625 -2.875 C 20.257812 -3.632812 20.5625 -4.628906 20.5625 -5.859375 L 20.5625 -14.75 C 20.5625 -16.75 20.242188 -18.273438 19.609375 -19.328125 C 18.984375 -20.390625 17.882812 -20.921875 16.3125 -20.921875 C 15.082031 -20.921875 13.96875 -20.597656 12.96875 -19.953125 C 11.976562 -19.316406 10.988281 -18.445312 10 -17.34375 Z M 10 -6.015625 "/></g></g><g style="fill:#471a14;fill-opacity:1;"><g transform="translate(108.958808, 51.336466)"><path style="stroke:none" d="M 13.015625 -6.65625 C 13.015625 -5.351562 13.128906 -4.394531 13.359375 -3.78125 C 13.585938 -3.164062 13.898438 -2.753906 14.296875 -2.546875 C 14.703125 -2.347656 15.34375 -2.171875 16.21875 -2.015625 C 17.21875 -1.847656 18.113281 -1.628906 18.90625 -1.359375 L 18.84375 0 L 1.84375 0 L 1.84375 -1.328125 C 2.332031 -1.546875 2.773438 -1.703125 3.171875 -1.796875 C 3.578125 -1.890625 4.085938 -1.988281 4.703125 -2.09375 C 5.472656 -2.195312 6.035156 -2.347656 6.390625 -2.546875 C 6.753906 -2.742188 7.03125 -3.179688 7.21875 -3.859375 C 7.414062 -4.546875 7.515625 -5.628906 7.515625 -7.109375 L 7.515625 -26.34375 C 7.515625 -27.738281 7.394531 -28.769531 7.15625 -29.4375 C 6.914062 -30.101562 6.601562 -30.53125 6.21875 -30.71875 C 5.84375 -30.90625 5.28125 -31.050781 4.53125 -31.15625 C 3.914062 -31.25 3.40625 -31.347656 3 -31.453125 C 2.601562 -31.554688 2.179688 -31.738281 1.734375 -32 L 1.796875 -33.296875 L 18.75 -33.296875 L 18.796875 -31.96875 C 18.441406 -31.832031 17.929688 -31.6875 17.265625 -31.53125 C 16.328125 -31.289062 15.578125 -31.050781 15.015625 -30.8125 C 14.453125 -30.570312 13.976562 -30.203125 13.59375 -29.703125 C 13.207031 -29.203125 13.015625 -28.515625 13.015625 -27.640625 Z M 13.015625 -6.65625 "/></g></g><g style="fill:#471a14;fill-opacity:1;"><g transform="translate(129.593092, 51.336466)"><path style="stroke:none" d="M 9.84375 -5.671875 C 9.84375 -4.210938 10.210938 -3.15625 10.953125 -2.5 C 11.703125 -1.84375 12.832031 -1.4375 14.34375 -1.28125 C 14.34375 -1.019531 14.332031 -0.757812 14.3125 -0.5 C 14.300781 -0.25 14.296875 -0.0820312 14.296875 0 L 1.125 0 L 1.09375 -0.8125 C 1.09375 -1.09375 1.101562 -1.28125 1.125 -1.375 C 2.113281 -1.613281 2.859375 -1.828125 3.359375 -2.015625 C 3.867188 -2.203125 4.285156 -2.507812 4.609375 -2.9375 C 4.929688 -3.363281 5.09375 -3.960938 5.09375 -4.734375 L 5.09375 -18.59375 C 4.882812 -18.988281 4.476562 -19.34375 3.875 -19.65625 C 3.28125 -19.96875 2.65625 -20.226562 2 -20.4375 C 1.34375 -20.65625 1.015625 -20.753906 1.015625 -20.734375 L 1.09375 -21.609375 L 8.078125 -23.34375 L 9.640625 -23.453125 L 9.921875 -19.3125 C 10.859375 -20.570312 12.054688 -21.613281 13.515625 -22.4375 C 14.972656 -23.269531 16.546875 -23.6875 18.234375 -23.6875 C 20.703125 -23.6875 22.617188 -22.984375 23.984375 -21.578125 C 25.347656 -20.179688 26.09375 -18.09375 26.21875 -15.3125 C 26.269531 -14.226562 26.296875 -13.113281 26.296875 -11.96875 L 26.296875 -6.265625 C 26.296875 -5.023438 26.367188 -4.117188 26.515625 -3.546875 C 26.671875 -2.984375 26.914062 -2.597656 27.25 -2.390625 C 27.582031 -2.179688 28.140625 -1.957031 28.921875 -1.71875 L 30 -1.375 C 30.019531 -1.28125 30.03125 -1.09375 30.03125 -0.8125 L 30 0 L 17.390625 0 C 17.390625 -0.101562 17.378906 -0.273438 17.359375 -0.515625 C 17.347656 -0.765625 17.34375 -1.019531 17.34375 -1.28125 C 17.457031 -1.332031 17.796875 -1.429688 18.359375 -1.578125 C 19.265625 -1.835938 19.96875 -2.113281 20.46875 -2.40625 C 20.96875 -2.695312 21.269531 -3.164062 21.375 -3.8125 C 21.457031 -4.300781 21.5 -4.957031 21.5 -5.78125 L 21.5 -11.484375 C 21.5 -13.753906 21.414062 -15.5 21.25 -16.71875 C 21.09375 -17.945312 20.671875 -18.953125 19.984375 -19.734375 C 19.296875 -20.523438 18.1875 -20.921875 16.65625 -20.921875 C 15.4375 -20.921875 14.269531 -20.570312 13.15625 -19.875 C 12.039062 -19.175781 10.9375 -18.242188 9.84375 -17.078125 Z M 9.84375 -5.671875 "/></g></g><g style="fill:#471a14;fill-opacity:1;"><g transform="translate(160.276031, 51.336466)"><path style="stroke:none" d="M 17.671875 -16.140625 C 17.429688 -16.117188 17.03125 -16.109375 16.46875 -16.109375 C 15.976562 -17.828125 15.234375 -19.234375 14.234375 -20.328125 C 13.234375 -21.421875 11.957031 -21.96875 10.40625 -21.96875 C 9.332031 -21.96875 8.484375 -21.703125 7.859375 -21.171875 C 7.242188 -20.640625 6.9375 -19.875 6.9375 -18.875 C 6.9375 -18.175781 7.191406 -17.523438 7.703125 -16.921875 C 8.210938 -16.328125 8.835938 -15.800781 9.578125 -15.34375 C 10.316406 -14.894531 11.289062 -14.367188 12.5 -13.765625 C 12.789062 -13.617188 13.226562 -13.394531 13.8125 -13.09375 C 15.71875 -12.070312 17.109375 -11.023438 17.984375 -9.953125 C 18.867188 -8.890625 19.3125 -7.59375 19.3125 -6.0625 C 19.3125 -4.644531 18.960938 -3.445312 18.265625 -2.46875 C 17.566406 -1.488281 16.601562 -0.742188 15.375 -0.234375 C 14.144531 0.265625 12.738281 0.515625 11.15625 0.515625 C 9.75 0.515625 8.328125 0.347656 6.890625 0.015625 C 5.460938 -0.316406 4.289062 -0.765625 3.375 -1.328125 L 3.375 -7.5625 C 4.039062 -7.65625 4.492188 -7.703125 4.734375 -7.703125 C 5.117188 -5.804688 5.8125 -4.257812 6.8125 -3.0625 C 7.8125 -1.875 9.179688 -1.28125 10.921875 -1.28125 C 12.160156 -1.28125 13.191406 -1.585938 14.015625 -2.203125 C 14.847656 -2.828125 15.265625 -3.65625 15.265625 -4.6875 C 15.265625 -5.332031 15.078125 -5.898438 14.703125 -6.390625 C 14.328125 -6.890625 13.84375 -7.328125 13.25 -7.703125 C 12.65625 -8.078125 11.757812 -8.578125 10.5625 -9.203125 C 8.957031 -10.054688 7.738281 -10.75 6.90625 -11.28125 C 5.613281 -12.082031 4.632812 -12.976562 3.96875 -13.96875 C 3.3125 -14.957031 2.984375 -16.132812 2.984375 -17.5 C 2.984375 -18.8125 3.316406 -19.929688 3.984375 -20.859375 C 4.648438 -21.785156 5.550781 -22.488281 6.6875 -22.96875 C 7.832031 -23.445312 9.125 -23.6875 10.5625 -23.6875 C 11.875 -23.6875 13.117188 -23.519531 14.296875 -23.1875 C 15.484375 -22.863281 16.554688 -22.40625 17.515625 -21.8125 Z M 17.671875 -16.140625 "/></g></g><g style="fill:#471a14;fill-opacity:1;"><g transform="translate(182.112056, 51.336466)"><path style="stroke:none" d="M 7.5 -35.1875 C 8.3125 -35.1875 9.003906 -34.894531 9.578125 -34.3125 C 10.160156 -33.738281 10.453125 -33.039062 10.453125 -32.21875 C 10.453125 -31.382812 10.160156 -30.679688 9.578125 -30.109375 C 9.003906 -29.535156 8.3125 -29.25 7.5 -29.25 C 6.65625 -29.25 5.945312 -29.535156 5.375 -30.109375 C 4.8125 -30.679688 4.53125 -31.382812 4.53125 -32.21875 C 4.53125 -33.039062 4.8125 -33.738281 5.375 -34.3125 C 5.945312 -34.894531 6.65625 -35.1875 7.5 -35.1875 Z M 5.453125 -18.59375 C 5.222656 -18.988281 4.804688 -19.34375 4.203125 -19.65625 C 3.597656 -19.96875 2.972656 -20.226562 2.328125 -20.4375 C 1.691406 -20.65625 1.375 -20.753906 1.375 -20.734375 L 1.4375 -21.640625 L 8.625 -23.375 L 10.203125 -23.484375 L 10.203125 -5.625 C 10.203125 -5.03125 10.265625 -4.46875 10.390625 -3.9375 C 10.523438 -3.40625 10.921875 -2.867188 11.578125 -2.328125 C 12.234375 -1.785156 13.265625 -1.4375 14.671875 -1.28125 C 14.671875 -0.71875 14.664062 -0.289062 14.65625 0 L 1.296875 0 C 1.265625 -0.300781 1.25 -0.726562 1.25 -1.28125 L 1.96875 -1.484375 C 2.71875 -1.691406 3.320312 -1.894531 3.78125 -2.09375 C 4.238281 -2.300781 4.628906 -2.601562 4.953125 -3 C 5.285156 -3.40625 5.453125 -3.945312 5.453125 -4.625 Z M 5.453125 -18.59375 "/></g></g><g style="fill:#471a14;fill-opacity:1;"><g transform="translate(197.300111, 51.336466)"><path style="stroke:none" d="M 24.109375 -20.59375 C 23.734375 -20.707031 23.125 -20.765625 22.28125 -20.765625 C 21.59375 -20.765625 20.875 -20.734375 20.125 -20.671875 C 19.375 -20.617188 18.890625 -20.570312 18.671875 -20.53125 C 18.671875 -20.570312 18.859375 -20.332031 19.234375 -19.8125 C 19.609375 -19.289062 19.941406 -18.691406 20.234375 -18.015625 C 20.535156 -17.335938 20.6875 -16.671875 20.6875 -16.015625 C 20.6875 -14.285156 20.25 -12.804688 19.375 -11.578125 C 18.507812 -10.359375 17.378906 -9.4375 15.984375 -8.8125 C 14.597656 -8.1875 13.148438 -7.875 11.640625 -7.875 C 10.785156 -7.875 9.691406 -8.03125 8.359375 -8.34375 C 8.304688 -8.300781 8.113281 -8.171875 7.78125 -7.953125 C 7.351562 -7.679688 7.039062 -7.429688 6.84375 -7.203125 C 6.644531 -6.972656 6.546875 -6.644531 6.546875 -6.21875 C 6.546875 -5.789062 6.765625 -5.46875 7.203125 -5.25 C 7.648438 -5.039062 8.25 -4.894531 9 -4.8125 C 9.75 -4.738281 10.941406 -4.671875 12.578125 -4.609375 C 13.804688 -4.554688 15.179688 -4.476562 16.703125 -4.375 C 18.867188 -4.21875 20.613281 -3.65625 21.9375 -2.6875 C 23.269531 -1.71875 23.9375 -0.378906 23.9375 1.328125 C 23.9375 2.859375 23.363281 4.203125 22.21875 5.359375 C 21.082031 6.523438 19.546875 7.414062 17.609375 8.03125 C 15.671875 8.65625 13.546875 8.96875 11.234375 8.96875 C 9.304688 8.96875 7.632812 8.757812 6.21875 8.34375 C 4.800781 7.925781 3.71875 7.390625 2.96875 6.734375 C 2.226562 6.078125 1.859375 5.398438 1.859375 4.703125 C 1.859375 3.953125 2.175781 3.125 2.8125 2.21875 C 3.445312 1.320312 4.4375 0.378906 5.78125 -0.609375 C 4.820312 -1.003906 4.070312 -1.507812 3.53125 -2.125 C 3 -2.738281 2.734375 -3.421875 2.734375 -4.171875 C 2.734375 -5.078125 3.097656 -5.910156 3.828125 -6.671875 C 4.566406 -7.441406 5.609375 -8.21875 6.953125 -9 C 5.609375 -9.769531 4.566406 -10.71875 3.828125 -11.84375 C 3.097656 -12.96875 2.734375 -14.242188 2.734375 -15.671875 C 2.734375 -17.210938 3.113281 -18.59375 3.875 -19.8125 C 4.632812 -21.03125 5.691406 -21.976562 7.046875 -22.65625 C 8.398438 -23.34375 9.921875 -23.6875 11.609375 -23.6875 C 13.640625 -23.6875 15.515625 -23.234375 17.234375 -22.328125 C 17.410156 -22.390625 17.796875 -22.519531 18.390625 -22.71875 C 18.984375 -22.914062 19.691406 -23.109375 20.515625 -23.296875 C 21.347656 -23.484375 22.101562 -23.578125 22.78125 -23.578125 C 23.019531 -23.578125 23.265625 -23.5625 23.515625 -23.53125 C 23.765625 -23.507812 23.921875 -23.492188 23.984375 -23.484375 Z M 7.28125 -16.21875 C 7.28125 -14.269531 7.6875 -12.671875 8.5 -11.421875 C 9.3125 -10.179688 10.519531 -9.5625 12.125 -9.5625 C 13.5 -9.5625 14.523438 -10.070312 15.203125 -11.09375 C 15.878906 -12.125 16.21875 -13.515625 16.21875 -15.265625 C 16.21875 -16.648438 16.003906 -17.832031 15.578125 -18.8125 C 15.160156 -19.789062 14.585938 -20.53125 13.859375 -21.03125 C 13.128906 -21.53125 12.3125 -21.78125 11.40625 -21.78125 C 10.632812 -21.78125 9.9375 -21.546875 9.3125 -21.078125 C 8.695312 -20.609375 8.203125 -19.953125 7.828125 -19.109375 C 7.460938 -18.265625 7.28125 -17.300781 7.28125 -16.21875 Z M 12.078125 -0.078125 C 10.773438 -0.0976562 9.304688 -0.203125 7.671875 -0.390625 C 6.015625 1.023438 5.1875 2.320312 5.1875 3.5 C 5.1875 4.320312 5.566406 4.984375 6.328125 5.484375 C 7.085938 5.984375 7.984375 6.335938 9.015625 6.546875 C 10.046875 6.753906 11.003906 6.859375 11.890625 6.859375 C 13.140625 6.859375 14.425781 6.71875 15.75 6.4375 C 17.082031 6.15625 18.195312 5.722656 19.09375 5.140625 C 20 4.554688 20.453125 3.847656 20.453125 3.015625 C 20.453125 2.097656 19.945312 1.375 18.9375 0.84375 C 17.925781 0.3125 16.363281 0.0195312 14.25 -0.03125 Z M 12.078125 -0.078125 "/></g></g><g style="fill:#471a14;fill-opacity:1;"><g transform="translate(222.894802, 51.336466)"><path style="stroke:none" d="M 26.578125 -5.65625 C 26.578125 -4.34375 26.910156 -3.3125 27.578125 -2.5625 C 28.253906 -1.820312 29.210938 -1.394531 30.453125 -1.28125 C 30.453125 -1.019531 30.441406 -0.765625 30.421875 -0.515625 C 30.410156 -0.273438 30.40625 -0.101562 30.40625 0 L 17.828125 0 C 17.828125 -0.101562 17.816406 -0.273438 17.796875 -0.515625 C 17.785156 -0.765625 17.78125 -1.019531 17.78125 -1.28125 C 18.0625 -1.414062 18.625 -1.609375 19.46875 -1.859375 C 20.113281 -2.066406 20.582031 -2.257812 20.875 -2.4375 C 21.175781 -2.613281 21.40625 -2.929688 21.5625 -3.390625 C 21.726562 -3.859375 21.8125 -4.550781 21.8125 -5.46875 L 21.8125 -14.75 C 21.8125 -16.625 21.414062 -18.117188 20.625 -19.234375 C 19.832031 -20.359375 18.59375 -20.921875 16.90625 -20.921875 C 15.695312 -20.921875 14.523438 -20.597656 13.390625 -19.953125 C 12.253906 -19.316406 11.207031 -18.5 10.25 -17.5 L 10.25 -5.953125 C 10.25 -4.421875 10.597656 -3.296875 11.296875 -2.578125 C 12.003906 -1.867188 13.148438 -1.4375 14.734375 -1.28125 L 14.703125 0 L 1.078125 0 C 1.078125 -0.101562 1.066406 -0.273438 1.046875 -0.515625 C 1.023438 -0.765625 1.015625 -1.019531 1.015625 -1.28125 C 4.003906 -1.519531 5.5 -3.078125 5.5 -5.953125 L 5.5 -29.765625 C 5.332031 -30.023438 4.957031 -30.335938 4.375 -30.703125 C 3.789062 -31.066406 3.175781 -31.394531 2.53125 -31.6875 C 1.894531 -31.976562 1.425781 -32.140625 1.125 -32.171875 L 1.125 -33.0625 L 8.4375 -35.015625 L 10.25 -35.1875 L 10.25 -19.640625 C 11.601562 -20.984375 12.925781 -21.992188 14.21875 -22.671875 C 15.507812 -23.347656 17.007812 -23.6875 18.71875 -23.6875 C 21.09375 -23.6875 22.992188 -22.929688 24.421875 -21.421875 C 25.859375 -19.910156 26.578125 -17.613281 26.578125 -14.53125 Z M 26.578125 -5.65625 "/></g></g><g style="fill:#471a14;fill-opacity:1;"><g transform="translate(254.012423, 51.336466)"><path style="stroke:none" d="M 9.390625 -8.03125 C 9.390625 -6.289062 9.445312 -5.050781 9.5625 -4.3125 C 9.6875 -3.570312 9.976562 -3.035156 10.4375 -2.703125 C 10.894531 -2.367188 11.671875 -2.203125 12.765625 -2.203125 C 13.410156 -2.203125 14.054688 -2.257812 14.703125 -2.375 C 15.347656 -2.5 15.894531 -2.628906 16.34375 -2.765625 L 16.546875 -0.890625 C 15.671875 -0.460938 14.789062 -0.125 13.90625 0.125 C 13.019531 0.382812 11.957031 0.515625 10.71875 0.515625 C 9.0625 0.515625 7.796875 0.242188 6.921875 -0.296875 C 6.054688 -0.847656 5.453125 -1.734375 5.109375 -2.953125 C 4.773438 -4.171875 4.609375 -5.890625 4.609375 -8.109375 L 4.609375 -21.078125 L 0.796875 -21.078125 L 0.796875 -21.96875 C 1.953125 -22.425781 2.925781 -22.96875 3.71875 -23.59375 C 4.507812 -24.21875 5.160156 -24.859375 5.671875 -25.515625 C 6.179688 -26.179688 6.796875 -27.0625 7.515625 -28.15625 C 7.828125 -28.644531 8.066406 -28.972656 8.234375 -29.140625 C 8.398438 -29.304688 8.570312 -29.390625 8.75 -29.390625 C 8.914062 -29.390625 9.050781 -29.304688 9.15625 -29.140625 C 9.269531 -28.972656 9.328125 -28.722656 9.328125 -28.390625 L 9.328125 -22.984375 L 15.75 -22.984375 L 15.75 -21.078125 L 9.390625 -21.078125 Z M 9.390625 -8.03125 "/></g></g></g></g></g></svg>